Coordinates
version=1
nRows=196
nColumns=3
inDegrees=yes

Units are S.I. units (second, meters, Newtons, ...)
If the header above contains a line with 'inDegrees', this indicates whether rotational values are in degrees (yes) or radians (no).

endheader
time	r_shoulder_elev	r_elbow_flex
      0.00000000	     52.87626878	     26.73686169
      0.03330000	     51.34537329	     29.83540354
      0.06670000	     50.06681528	     32.57396956
      0.10000000	     49.34631479	     34.22664447
      0.13330000	     49.24963277	     34.43572846
      0.16670000	     49.56556941	     33.56155818
      0.20000000	     49.97606804	     32.43024347
      0.23330000	     50.26903405	     31.70748361
      0.26670000	     50.43822175	     31.42512173
      0.30000000	     50.59173180	     31.14755333
      0.33330000	     50.78765500	     30.58015167
      0.36670000	     50.99072192	     29.85845544
      0.40000000	     51.15748419	     29.28816817
      0.43330000	     51.27694763	     29.04752151
      0.46670000	     51.32024451	     29.14653665
      0.50000000	     51.23015317	     29.48531928
      0.53330000	     51.01178110	     29.84460401
      0.56670000	     50.76012998	     29.99646584
      0.60000000	     50.56009928	     29.93534993
      0.63330000	     50.37132252	     29.92076365
      0.66670000	     49.98557208	     30.33065400
      0.70000000	     49.13324424	     31.39783719
      0.73330000	     47.66799146	     33.15061180
      0.76670000	     45.75944847	     35.36189726
      0.80000000	     43.86895185	     37.53318376
      0.83330000	     42.37182084	     39.19772168
      0.86670000	     41.21237357	     40.30305199
      0.90000000	     40.10456426	     41.04465970
      0.93330000	     38.93792305	     41.52388931
      0.96670000	     37.79575858	     41.81390883
      1.00000000	     36.68191815	     42.17639723
      1.03330000	     35.44286293	     43.02684659
      1.06670000	     33.90128215	     44.90077706
      1.10000000	     32.05935701	     48.12587210
      1.13330000	     30.21971346	     52.12126982
      1.16670000	     28.80983100	     55.57008747
      1.20000000	     28.02519723	     57.67862523
      1.23330000	     27.79603393	     58.38037122
      1.26670000	     27.94442613	     57.90028017
      1.30000000	     28.27841740	     56.89819247
      1.33330000	     28.62077564	     56.67313656
      1.36670000	     28.92309851	     58.08843516
      1.40000000	     29.34076578	     60.15733914
      1.43330000	     29.94416477	     61.21852592
      1.46670000	     30.73634143	     59.99314545
      1.50000000	     31.98116368	     55.46893005
      1.53330000	     34.00412759	     48.01860818
      1.56670000	     36.31956979	     41.11974404
      1.60000000	     38.03264478	     37.70307014
      1.63330000	     39.02065125	     36.71718776
      1.66670000	     39.64562848	     36.16391411
      1.70000000	     40.26723723	     35.12653637
      1.73330000	     40.95629296	     33.88682431
      1.76670000	     41.51848471	     33.04309316
      1.80000000	     41.84302554	     32.45512772
      1.83330000	     42.06885710	     31.51517133
      1.86670000	     42.42844626	     30.13778373
      1.90000000	     43.01225120	     29.02192326
      1.93330000	     43.77932913	     28.60307827
      1.96670000	     44.69781651	     28.34732495
      2.00000000	     45.69240822	     27.64438221
      2.03330000	     46.55019117	     26.62642933
      2.06670000	     46.99881609	     25.91179352
      2.10000000	     46.91404764	     25.89682960
      2.13330000	     46.39287131	     26.51767351
      2.16670000	     45.57308579	     27.71770949
      2.20000000	     44.50784906	     29.67489150
      2.23330000	     43.32299923	     32.20913176
      2.26670000	     42.39466382	     34.24828526
      2.30000000	     42.11784547	     34.62690370
      2.33330000	     42.40338775	     33.69090186
      2.36670000	     42.57237276	     33.52911355
      2.40000000	     42.11662690	     35.54074688
      2.43330000	     41.51003599	     38.14062649
      2.46670000	     41.72874111	     38.43156935
      2.50000000	     43.12179370	     35.42177485
      2.53330000	     44.96906373	     30.95695864
      2.56670000	     46.19086874	     27.74778757
      2.60000000	     46.43548153	     26.72338421
      2.63330000	     46.14108948	     27.00605703
      2.66670000	     45.82241671	     27.49286683
      2.70000000	     45.59802811	     27.73966845
      2.73330000	     45.37478022	     27.58668042
      2.76670000	     45.21488084	     26.64585704
      2.80000000	     45.26608824	     24.79048971
      2.83330000	     45.35993791	     23.11285449
      2.86670000	     45.02595676	     23.37030150
      2.90000000	     44.10472949	     25.87751213
      2.93330000	     42.99437982	     29.09958801
      2.96670000	     42.21581369	     31.31304412
      3.00000000	     41.98494068	     31.90398249
      3.03330000	     42.18184496	     31.30066261
      3.06670000	     42.54367444	     30.27813958
      3.10000000	     42.82722265	     29.47125923
      3.13330000	     42.87177621	     29.23037891
      3.16670000	     42.64960159	     29.52748370
      3.20000000	     42.30501773	     29.94727164
      3.23330000	     42.06756413	     30.06506542
      3.26670000	     42.01577475	     30.08844784
      3.30000000	     41.91161308	     30.94963136
      3.33330000	     41.36563977	     33.37927626
      3.36670000	     40.17489549	     37.08355967
      3.40000000	     38.53560087	     40.85978417
      3.43330000	     37.00329011	     43.27948524
      3.46670000	     36.01819778	     43.96927573
      3.50000000	     35.38366722	     44.52287171
      3.53330000	     34.52671663	     46.97610783
      3.56670000	     33.27268446	     51.21333973
      3.60000000	     32.01755054	     55.01278157
      3.63330000	     31.25464019	     56.52702969
      3.66670000	     31.19453538	     55.74518322
      3.70000000	     31.62532338	     54.07476112
      3.73330000	     32.08753016	     53.01556264
      3.76670000	     32.30736998	     52.89667188
      3.80000000	     32.41868319	     52.85275912
      3.83330000	     32.74680856	     52.01538840
      3.86670000	     33.43524321	     50.46450262
      3.90000000	     34.26367088	     49.11025168
      3.93330000	     34.92030966	     48.58847072
      3.96670000	     35.39727390	     48.53416053
      4.00000000	     36.02478589	     47.93445545
      4.03330000	     37.12008240	     46.05614173
      4.06670000	     38.62081999	     43.17095529
      4.10000000	     40.11819802	     40.30212858
      4.13330000	     41.23132159	     38.29805119
      4.16670000	     41.88865930	     37.27922125
      4.20000000	     42.28885523	     36.82322348
      4.23330000	     42.70101319	     36.42144918
      4.26670000	     43.31029739	     35.73425655
      4.30000000	     44.15990688	     34.66346518
      4.33330000	     45.11614030	     33.44474032
      4.36670000	     45.93655874	     32.53173285
      4.40000000	     46.40075602	     32.30723111
      4.43330000	     46.43093438	     32.86365412
      4.46670000	     46.14284223	     33.93044391
      4.50000000	     45.81899525	     34.91841433
      4.53330000	     45.74955256	     35.22845647
      4.56670000	     45.99126197	     34.77702394
      4.60000000	     46.33785257	     34.08895408
      4.63330000	     46.54064808	     33.80784442
      4.66670000	     46.49194557	     34.13678663
      4.70000000	     46.15163064	     34.85946399
      4.73330000	     45.43447504	     35.75681875
      4.76670000	     44.33874393	     36.71870643
      4.80000000	     43.06741336	     37.67186225
      4.83330000	     41.83807624	     38.68192472
      4.86670000	     40.59775115	     40.03704305
      4.90000000	     39.13080527	     41.96784183
      4.93330000	     37.45499254	     44.14829908
      4.96670000	     35.95432642	     45.60117450
      5.00000000	     35.00202926	     45.60793102
      5.03330000	     34.52371602	     44.72066607
      5.06670000	     34.06639482	     44.41202309
      5.10000000	     33.35745560	     45.58574101
      5.13330000	     32.72977068	     47.34809905
      5.16670000	     32.78649987	     47.74415345
      5.20000000	     33.69665523	     45.87472848
      5.23330000	     35.07703295	     42.74047707
      5.26670000	     36.40029975	     40.47821656
      5.30000000	     37.56205403	     39.86466442
      5.33330000	     38.93594214	     39.23998246
      5.36670000	     40.71117464	     37.25189570
      5.40000000	     42.65260029	     34.12217370
      5.43330000	     44.29211850	     31.02292375
      5.46670000	     45.24307370	     29.02048768
      5.50000000	     45.45375112	     28.18429506
      5.53330000	     45.15106262	     27.85162733
      5.56670000	     44.63979603	     27.50371863
      5.60000000	     44.19841613	     27.04250515
      5.63330000	     43.99494818	     26.56356310
      5.66670000	     44.00147004	     26.11207394
      5.70000000	     44.05393201	     25.62022451
      5.73330000	     44.03064960	     25.00981719
      5.76670000	     43.91496859	     24.39512526
      5.80000000	     43.67397634	     24.24931921
      5.83330000	     43.18837962	     25.18752655
      5.86670000	     42.42219010	     27.25421147
      5.90000000	     41.63518251	     29.45351263
      5.93330000	     41.26298530	     30.37997649
      5.96670000	     41.49850710	     29.52935926
      6.00000000	     42.00093783	     28.00472540
      6.03330000	     42.16658206	     27.60872245
      6.06670000	     41.87150109	     28.65975710
      6.10000000	     41.71486718	     29.33800603
      6.13330000	     42.26779846	     27.97169721
      6.16670000	     43.34650038	     25.13577373
      6.20000000	     44.20174811	     23.01499165
      6.23330000	     44.39707464	     22.81542898
      6.26670000	     44.24914630	     23.50293154
      6.30000000	     44.31613123	     23.39292435
      6.33330000	     44.73814081	     22.12807922
      6.36670000	     45.19571262	     20.71713445
      6.40000000	     45.34130830	     20.19100815
      6.43330000	     45.14350645	     20.63004109
      6.46670000	     44.81197268	     21.45190532
      6.50000000	     44.48511658	     22.31650777
